<svg t="1737707882204" class="icon" viewBox="0 0 1024 1024" version="1.1" xmlns="http://www.w3.org/2000/svg" p-id="7932" width="16" height="16"><path d="M810.666667 640V213.333333a85.333333 85.333333 0 0 0-85.333334-85.333333H128a85.333333 85.333333 0 0 0-85.333333 85.333333v426.666667a85.333333 85.333333 0 0 0 85.333333 85.333333h597.333333a85.333333 85.333333 0 0 0 85.333334-85.333333zM128 298.666667h597.333333v341.333333H128z m768 0v426.666666a85.333333 85.333333 0 0 1-85.333333 85.333334H213.333333a85.333333 85.333333 0 0 0 85.333334 85.333333h512a170.666667 170.666667 0 0 0 170.666666-170.666667V384a85.333333 85.333333 0 0 0-85.333333-85.333333z" p-id="7933" fill="#f9f9f9"></path></svg>