<svg t="1737708529817" class="icon" viewBox="0 0 1024 1024" version="1.1" xmlns="http://www.w3.org/2000/svg" p-id="8938" width="16" height="16"><path d="M442.1 64.9h140c23.3 0 42 18.7 42 42v293.9h153.4c31.1 0 46.7 37.6 24.7 59.7L536 726.7c-13.1 13.1-34.6 13.1-47.8 0L221.8 460.4c-22-22-6.5-59.7 24.7-59.7h153.6V106.9c0-23.3 18.7-42 42-42z m517.8 657.7v195.9c0 23.3-18.7 42-42 42H106.2c-23.3 0-42-18.7-42-42V722.6c0-23.3 18.7-42 42-42h256.6l85.7 85.7c35.2 35.2 91.8 35.2 127 0l85.7-85.7h256.6c23.4 0.1 42.1 18.8 42.1 42zM743 876.6c0-19.2-15.7-35-35-35s-35 15.7-35 35c0 19.2 15.7 35 35 35s35-15.8 35-35z m111.9 0c0-19.2-15.7-35-35-35-19.2 0-35 15.7-35 35 0 19.2 15.7 35 35 35s35-15.8 35-35z" p-id="8939" fill="#f9f9f9"></path></svg>